<svg width="91" height="82" viewBox="0 0 91 82" fill="none" xmlns="http://www.w3.org/2000/svg">
<path d="M0 59C-1.3216e-06 72.2608 6.00534 84.9785 16.6949 94.3553C27.3845 103.732 41.8827 109 57 109C72.1173 109 86.6155 103.732 97.3051 94.3553C107.995 84.9785 114 72.2608 114 59L84.3362 59C84.3362 65.3597 81.4561 71.4588 76.3296 75.9558C71.203 80.4527 64.25 82.9791 57 82.9791C49.75 82.9791 42.7969 80.4527 37.6704 75.9558C32.5439 71.4588 29.6638 65.3596 29.6638 59H0Z" fill="#B0868E"/>
<path d="M114 50C114 36.7392 107.995 24.0215 97.3051 14.6447C86.6155 5.26784 72.1173 1.00116e-06 57 0C41.8827 -1.00116e-06 27.3845 5.26784 16.6949 14.6447C6.00534 24.0215 2.28266e-06 36.7392 0 50L29.6638 50C29.6638 43.6404 32.5439 37.5412 37.6704 33.0442C42.7969 28.5473 49.75 26.0209 57 26.0209C64.25 26.0209 71.2031 28.5473 76.3296 33.0442C81.4561 37.5412 84.3362 43.6404 84.3362 50H114Z" fill="#B0868E"/>
<circle cx="57" cy="55" r="23" fill="#B0868E"/>
</svg>
