<svg width="315" height="314" viewBox="0 0 315 314" fill="none" xmlns="http://www.w3.org/2000/svg">
<path d="M88.1096 193.602C107.913 225.534 141.221 247.279 180.705 254.055C220.189 260.831 262.616 252.083 298.651 229.734C334.687 207.385 361.38 173.267 372.858 134.885C384.335 96.5028 379.658 57.0011 359.855 25.0695L289.144 68.9233C298.641 84.237 300.885 103.181 295.38 121.589C289.875 139.996 277.074 156.358 259.792 167.076C242.51 177.795 222.163 181.99 203.227 178.741C184.291 175.491 168.318 165.062 158.82 149.748L88.1096 193.602Z" fill="#D7D1C3"/>
<path d="M346.414 3.39789C326.611 -28.5336 293.303 -50.2793 253.819 -57.0552C214.335 -63.8312 171.908 -55.0825 135.873 -32.7337C99.8369 -10.3849 73.1441 23.7333 61.6662 62.1153C50.1884 100.497 54.8656 139.999 74.6691 171.93L145.38 128.077C135.882 112.763 133.639 93.8187 139.144 75.4114C144.648 57.0041 157.45 40.6417 174.732 29.9236C192.014 19.2055 212.361 15.0098 231.297 18.2594C250.233 21.5091 266.206 31.9379 275.704 47.2516L346.414 3.39789Z" fill="#D7D1C3"/>
<ellipse cx="218.009" cy="99.704" rx="64.5137" ry="65.1694" transform="rotate(-31.8066 218.009 99.704)" fill="#D7D1C3"/>
</svg>
